<mxfile host="app.diagrams.net" modified="2021-06-04T22:42:24.807Z" agent="5.0 (Windows NT 10.0; Win64; x64) AppleWebKit/537.36 (KHTML, like Gecko) Chrome/90.0.4430.212 Safari/537.36" etag="1FhRkG77dOUPNc7S89Us" version="14.7.6" type="github">
  <diagram id="tJItVRqZhzQuj05DMi1-" name="Page-1">
    <mxGraphModel dx="1460" dy="1018" grid="1" gridSize="10" guides="1" tooltips="1" connect="1" arrows="1" fold="1" page="1" pageScale="1" pageWidth="1100" pageHeight="850" background="#283618" math="0" shadow="0">
      <root>
        <mxCell id="0" />
        <mxCell id="1" parent="0" />
        <mxCell id="j7GF4RcRgUKBaXRiywtZ-11" style="edgeStyle=orthogonalEdgeStyle;orthogonalLoop=1;jettySize=auto;html=1;entryX=0.133;entryY=-0.01;entryDx=0;entryDy=0;exitX=0.5;exitY=1;exitDx=0;exitDy=0;entryPerimeter=0;labelBackgroundColor=#283618;strokeColor=#DDA15E;fontColor=#FEFAE0;" parent="1" source="j7GF4RcRgUKBaXRiywtZ-1" target="j7GF4RcRgUKBaXRiywtZ-3" edge="1">
          <mxGeometry relative="1" as="geometry" />
        </mxCell>
        <mxCell id="j7GF4RcRgUKBaXRiywtZ-13" value="Publish Partition Information" style="edgeLabel;html=1;align=center;verticalAlign=middle;resizable=0;points=[];rounded=1;labelBackgroundColor=#283618;fontColor=#FEFAE0;" parent="j7GF4RcRgUKBaXRiywtZ-11" vertex="1" connectable="0">
          <mxGeometry x="-0.3257" y="-2" relative="1" as="geometry">
            <mxPoint x="2" y="26" as="offset" />
          </mxGeometry>
        </mxCell>
        <mxCell id="j7GF4RcRgUKBaXRiywtZ-35" value="3" style="edgeLabel;html=1;align=center;verticalAlign=middle;resizable=0;points=[];labelBorderColor=#000000;rounded=1;labelBackgroundColor=#283618;fontColor=#FEFAE0;" parent="j7GF4RcRgUKBaXRiywtZ-11" vertex="1" connectable="0">
          <mxGeometry x="-0.6636" relative="1" as="geometry">
            <mxPoint as="offset" />
          </mxGeometry>
        </mxCell>
        <mxCell id="j7GF4RcRgUKBaXRiywtZ-1" value="Manager" style="whiteSpace=wrap;html=1;rounded=1;fillColor=#BC6C25;strokeColor=#DDA15E;fontColor=#FEFAE0;" parent="1" vertex="1">
          <mxGeometry x="150" y="430" width="120" height="60" as="geometry" />
        </mxCell>
        <mxCell id="j7GF4RcRgUKBaXRiywtZ-2" value="Worker" style="whiteSpace=wrap;html=1;rounded=1;fillColor=#BC6C25;strokeColor=#DDA15E;fontColor=#FEFAE0;" parent="1" vertex="1">
          <mxGeometry x="740" y="470" width="120" height="60" as="geometry" />
        </mxCell>
        <mxCell id="j7GF4RcRgUKBaXRiywtZ-3" value="Http Queue Manager" style="whiteSpace=wrap;html=1;rounded=1;fillColor=#BC6C25;strokeColor=#DDA15E;fontColor=#FEFAE0;" parent="1" vertex="1">
          <mxGeometry x="120" y="620" width="680" height="60" as="geometry" />
        </mxCell>
        <mxCell id="j7GF4RcRgUKBaXRiywtZ-5" style="edgeStyle=orthogonalEdgeStyle;orthogonalLoop=1;jettySize=auto;html=1;entryX=0.5;entryY=0;entryDx=0;entryDy=0;labelBackgroundColor=#283618;strokeColor=#DDA15E;fontColor=#FEFAE0;" parent="1" source="j7GF4RcRgUKBaXRiywtZ-4" target="j7GF4RcRgUKBaXRiywtZ-1" edge="1">
          <mxGeometry relative="1" as="geometry" />
        </mxCell>
        <mxCell id="j7GF4RcRgUKBaXRiywtZ-9" value="Deploy" style="edgeLabel;html=1;align=center;verticalAlign=middle;resizable=0;points=[];rounded=1;labelBackgroundColor=#283618;fontColor=#FEFAE0;" parent="j7GF4RcRgUKBaXRiywtZ-5" vertex="1" connectable="0">
          <mxGeometry x="0.2513" relative="1" as="geometry">
            <mxPoint x="-18" y="40" as="offset" />
          </mxGeometry>
        </mxCell>
        <mxCell id="j7GF4RcRgUKBaXRiywtZ-33" value="2.1" style="edgeLabel;html=1;align=center;verticalAlign=middle;resizable=0;points=[];labelBorderColor=#000000;rounded=1;labelBackgroundColor=#283618;fontColor=#FEFAE0;" parent="j7GF4RcRgUKBaXRiywtZ-5" vertex="1" connectable="0">
          <mxGeometry x="-0.6691" y="-3" relative="1" as="geometry">
            <mxPoint as="offset" />
          </mxGeometry>
        </mxCell>
        <mxCell id="j7GF4RcRgUKBaXRiywtZ-6" style="edgeStyle=orthogonalEdgeStyle;orthogonalLoop=1;jettySize=auto;html=1;entryX=0.5;entryY=0;entryDx=0;entryDy=0;labelBackgroundColor=#283618;strokeColor=#DDA15E;fontColor=#FEFAE0;" parent="1" source="j7GF4RcRgUKBaXRiywtZ-4" target="j7GF4RcRgUKBaXRiywtZ-2" edge="1">
          <mxGeometry relative="1" as="geometry" />
        </mxCell>
        <mxCell id="j7GF4RcRgUKBaXRiywtZ-10" value="Deploy" style="edgeLabel;html=1;align=center;verticalAlign=middle;resizable=0;points=[];rounded=1;labelBackgroundColor=#283618;fontColor=#FEFAE0;" parent="j7GF4RcRgUKBaXRiywtZ-6" vertex="1" connectable="0">
          <mxGeometry x="0.386" y="1" relative="1" as="geometry">
            <mxPoint x="-1" y="41" as="offset" />
          </mxGeometry>
        </mxCell>
        <mxCell id="j7GF4RcRgUKBaXRiywtZ-34" value="2.2" style="edgeLabel;html=1;align=center;verticalAlign=middle;resizable=0;points=[];labelBorderColor=#000000;rounded=1;labelBackgroundColor=#283618;fontColor=#FEFAE0;" parent="j7GF4RcRgUKBaXRiywtZ-6" vertex="1" connectable="0">
          <mxGeometry x="-0.719" y="1" relative="1" as="geometry">
            <mxPoint as="offset" />
          </mxGeometry>
        </mxCell>
        <mxCell id="j7GF4RcRgUKBaXRiywtZ-4" value="Job Controller" style="whiteSpace=wrap;html=1;rounded=1;fillColor=#BC6C25;strokeColor=#DDA15E;fontColor=#FEFAE0;" parent="1" vertex="1">
          <mxGeometry x="440" y="290" width="160" height="60" as="geometry" />
        </mxCell>
        <mxCell id="j7GF4RcRgUKBaXRiywtZ-24" style="edgeStyle=orthogonalEdgeStyle;orthogonalLoop=1;jettySize=auto;html=1;exitX=0;exitY=0.5;exitDx=0;exitDy=0;dashed=1;labelBackgroundColor=#283618;strokeColor=#DDA15E;fontColor=#FEFAE0;curved=1;" parent="1" source="j7GF4RcRgUKBaXRiywtZ-14" edge="1">
          <mxGeometry relative="1" as="geometry">
            <mxPoint x="640" y="620" as="targetPoint" />
          </mxGeometry>
        </mxCell>
        <mxCell id="j7GF4RcRgUKBaXRiywtZ-25" value="Publish&lt;br&gt;Partition Status" style="edgeLabel;html=1;align=center;verticalAlign=middle;resizable=0;points=[];rounded=1;labelBackgroundColor=#283618;fontColor=#FEFAE0;" parent="j7GF4RcRgUKBaXRiywtZ-24" vertex="1" connectable="0">
          <mxGeometry x="-0.3189" y="-1" relative="1" as="geometry">
            <mxPoint x="-27" y="55" as="offset" />
          </mxGeometry>
        </mxCell>
        <mxCell id="j7GF4RcRgUKBaXRiywtZ-38" value="4.1" style="edgeLabel;html=1;align=center;verticalAlign=middle;resizable=0;points=[];labelBorderColor=#000000;rounded=1;labelBackgroundColor=#283618;fontColor=#FEFAE0;" parent="j7GF4RcRgUKBaXRiywtZ-24" vertex="1" connectable="0">
          <mxGeometry x="-0.5572" relative="1" as="geometry">
            <mxPoint x="9" as="offset" />
          </mxGeometry>
        </mxCell>
        <mxCell id="j7GF4RcRgUKBaXRiywtZ-14" value="Worker" style="whiteSpace=wrap;html=1;rounded=1;fillColor=#BC6C25;strokeColor=#DDA15E;fontColor=#FEFAE0;" parent="1" vertex="1">
          <mxGeometry x="750" y="480" width="120" height="60" as="geometry" />
        </mxCell>
        <mxCell id="j7GF4RcRgUKBaXRiywtZ-15" value="Worker" style="whiteSpace=wrap;html=1;rounded=1;fillColor=#BC6C25;strokeColor=#DDA15E;fontColor=#FEFAE0;" parent="1" vertex="1">
          <mxGeometry x="760" y="490" width="120" height="60" as="geometry" />
        </mxCell>
        <mxCell id="j7GF4RcRgUKBaXRiywtZ-16" value="Worker" style="whiteSpace=wrap;html=1;rounded=1;fillColor=#BC6C25;strokeColor=#DDA15E;fontColor=#FEFAE0;" parent="1" vertex="1">
          <mxGeometry x="770" y="500" width="120" height="60" as="geometry" />
        </mxCell>
        <mxCell id="j7GF4RcRgUKBaXRiywtZ-40" style="edgeStyle=orthogonalEdgeStyle;orthogonalLoop=1;jettySize=auto;html=1;startArrow=none;startFill=0;endArrow=classic;endFill=1;labelBackgroundColor=#283618;strokeColor=#DDA15E;fontColor=#FEFAE0;" parent="1" source="j7GF4RcRgUKBaXRiywtZ-28" target="j7GF4RcRgUKBaXRiywtZ-4" edge="1">
          <mxGeometry relative="1" as="geometry" />
        </mxCell>
        <mxCell id="j7GF4RcRgUKBaXRiywtZ-41" value="Trigger" style="edgeLabel;html=1;align=center;verticalAlign=middle;resizable=0;points=[];rounded=1;labelBackgroundColor=#283618;fontColor=#FEFAE0;" parent="j7GF4RcRgUKBaXRiywtZ-40" vertex="1" connectable="0">
          <mxGeometry x="0.1469" relative="1" as="geometry">
            <mxPoint as="offset" />
          </mxGeometry>
        </mxCell>
        <mxCell id="j7GF4RcRgUKBaXRiywtZ-42" value="1" style="edgeLabel;html=1;align=center;verticalAlign=middle;resizable=0;points=[];labelBorderColor=#000000;rounded=1;labelBackgroundColor=#283618;fontColor=#FEFAE0;" parent="j7GF4RcRgUKBaXRiywtZ-40" vertex="1" connectable="0">
          <mxGeometry x="-0.2945" relative="1" as="geometry">
            <mxPoint y="-10" as="offset" />
          </mxGeometry>
        </mxCell>
        <mxCell id="j7GF4RcRgUKBaXRiywtZ-28" value="Scheduler (Cron-Job)" style="verticalLabelPosition=top;html=1;verticalAlign=bottom;align=center;strokeColor=none;fillColor=#BC6C25;shape=mxgraph.azure.scheduler;pointerEvents=1;labelPosition=center;rounded=1;fontColor=#FEFAE0;" parent="1" vertex="1">
          <mxGeometry x="499" y="140" width="40" height="50" as="geometry" />
        </mxCell>
        <mxCell id="j7GF4RcRgUKBaXRiywtZ-43" value="" style="endArrow=classic;html=1;entryX=1;entryY=0.25;entryDx=0;entryDy=0;labelBackgroundColor=#283618;strokeColor=#DDA15E;fontColor=#FEFAE0;exitX=0.616;exitY=1.014;exitDx=0;exitDy=0;exitPerimeter=0;edgeStyle=orthogonalEdgeStyle;curved=1;" parent="1" target="j7GF4RcRgUKBaXRiywtZ-16" edge="1">
          <mxGeometry width="50" height="50" relative="1" as="geometry">
            <mxPoint x="640.44" y="680.8400000000001" as="sourcePoint" />
            <mxPoint x="933" y="471" as="targetPoint" />
            <Array as="points">
              <mxPoint x="640" y="760" />
              <mxPoint x="1000" y="760" />
              <mxPoint x="1000" y="515" />
            </Array>
          </mxGeometry>
        </mxCell>
        <mxCell id="j7GF4RcRgUKBaXRiywtZ-44" value="Read Partition Information" style="edgeLabel;html=1;align=center;verticalAlign=middle;resizable=0;points=[];rounded=1;labelBackgroundColor=#283618;fontColor=#FEFAE0;" parent="j7GF4RcRgUKBaXRiywtZ-43" vertex="1" connectable="0">
          <mxGeometry x="-0.0764" relative="1" as="geometry">
            <mxPoint x="54" y="-90" as="offset" />
          </mxGeometry>
        </mxCell>
        <mxCell id="j7GF4RcRgUKBaXRiywtZ-45" value="4" style="edgeLabel;html=1;align=center;verticalAlign=middle;resizable=0;points=[];labelBorderColor=#000000;rounded=1;labelBackgroundColor=#283618;fontColor=#FEFAE0;" parent="j7GF4RcRgUKBaXRiywtZ-43" vertex="1" connectable="0">
          <mxGeometry x="0.5793" relative="1" as="geometry">
            <mxPoint x="-280" y="178" as="offset" />
          </mxGeometry>
        </mxCell>
        <mxCell id="j7GF4RcRgUKBaXRiywtZ-46" value="" style="endArrow=classic;html=1;entryX=0.75;entryY=1;entryDx=0;entryDy=0;exitX=0.646;exitY=-0.036;exitDx=0;exitDy=0;exitPerimeter=0;dashed=1;labelBackgroundColor=#283618;strokeColor=#DDA15E;fontColor=#FEFAE0;" parent="1" source="j7GF4RcRgUKBaXRiywtZ-3" target="j7GF4RcRgUKBaXRiywtZ-4" edge="1">
          <mxGeometry width="50" height="50" relative="1" as="geometry">
            <mxPoint x="570" y="550" as="sourcePoint" />
            <mxPoint x="620" y="500" as="targetPoint" />
          </mxGeometry>
        </mxCell>
        <mxCell id="j7GF4RcRgUKBaXRiywtZ-47" value="Watch&lt;br&gt;Job Status" style="edgeLabel;html=1;align=center;verticalAlign=middle;resizable=0;points=[];rounded=1;labelBackgroundColor=#283618;fontColor=#FEFAE0;" parent="j7GF4RcRgUKBaXRiywtZ-46" vertex="1" connectable="0">
          <mxGeometry x="0.3237" relative="1" as="geometry">
            <mxPoint y="-10" as="offset" />
          </mxGeometry>
        </mxCell>
        <mxCell id="j7GF4RcRgUKBaXRiywtZ-51" value="5" style="edgeLabel;html=1;align=center;verticalAlign=middle;resizable=0;points=[];labelBorderColor=#000000;rounded=1;labelBackgroundColor=#283618;fontColor=#FEFAE0;" parent="j7GF4RcRgUKBaXRiywtZ-46" vertex="1" connectable="0">
          <mxGeometry x="0.7939" relative="1" as="geometry">
            <mxPoint y="14" as="offset" />
          </mxGeometry>
        </mxCell>
        <mxCell id="j7GF4RcRgUKBaXRiywtZ-48" value="" style="endArrow=classic;html=1;exitX=0.25;exitY=1;exitDx=0;exitDy=0;labelBackgroundColor=#283618;strokeColor=#DDA15E;fontColor=#FEFAE0;" parent="1" source="j7GF4RcRgUKBaXRiywtZ-4" edge="1">
          <mxGeometry width="50" height="50" relative="1" as="geometry">
            <mxPoint x="570" y="550" as="sourcePoint" />
            <mxPoint x="480" y="619" as="targetPoint" />
          </mxGeometry>
        </mxCell>
        <mxCell id="j7GF4RcRgUKBaXRiywtZ-49" value="Deploy" style="edgeLabel;html=1;align=center;verticalAlign=middle;resizable=0;points=[];rounded=1;labelBackgroundColor=#283618;fontColor=#FEFAE0;" parent="j7GF4RcRgUKBaXRiywtZ-48" vertex="1" connectable="0">
          <mxGeometry x="-0.3197" relative="1" as="geometry">
            <mxPoint y="-10" as="offset" />
          </mxGeometry>
        </mxCell>
        <mxCell id="j7GF4RcRgUKBaXRiywtZ-50" value="2" style="edgeLabel;html=1;align=center;verticalAlign=middle;resizable=0;points=[];labelBorderColor=#000000;rounded=1;labelBackgroundColor=#283618;fontColor=#FEFAE0;" parent="j7GF4RcRgUKBaXRiywtZ-48" vertex="1" connectable="0">
          <mxGeometry x="-0.7831" y="-1" relative="1" as="geometry">
            <mxPoint y="13" as="offset" />
          </mxGeometry>
        </mxCell>
      </root>
    </mxGraphModel>
  </diagram>
</mxfile>
